<svg width="55" height="49" viewBox="0 0 55 49" fill="none" xmlns="http://www.w3.org/2000/svg">
<path d="M0 24.5C0 10.969 10.969 0 24.5 0H30.5C44.031 0 55 10.969 55 24.5C55 38.031 44.031 49 30.5 49H24.5C10.969 49 0 38.031 0 24.5Z" fill="#01A49E"/>
<path d="M37.6543 24.9667C37.8016 24.7333 38.1103 24.6632 38.3437 24.8104L39.1894 25.3436C39.3016 25.4144 39.3808 25.5268 39.4101 25.6561C39.4394 25.7854 39.4164 25.9209 39.3457 26.0331C36.891 29.9195 34.4102 32.3677 31.9541 33.6844C29.4701 35.0161 27.0643 35.1605 24.8759 34.536C20.5984 33.3148 17.3266 29.2162 15.6152 25.9647C15.5535 25.8474 15.5407 25.7104 15.58 25.5839C15.6194 25.4572 15.7077 25.3516 15.8252 25.2899L16.7099 24.8251L16.8037 24.787C17.027 24.7223 17.2722 24.8213 17.3847 25.035C19.0066 28.1163 21.9362 31.6174 25.4248 32.6131C27.1195 33.0967 28.9889 33.0045 31.0088 31.9217C33.0566 30.8239 35.3092 28.6795 37.6543 24.9667Z" fill="white"/>
</svg>
