<svg width="174" height="49" viewBox="0 0 174 49" fill="none" xmlns="http://www.w3.org/2000/svg">
<path d="M0 24.5C0 10.969 10.969 0 24.5 0H30.5C44.031 0 55 10.969 55 24.5C55 38.031 44.031 49 30.5 49H24.5C10.969 49 0 38.031 0 24.5Z" fill="#01A49E"/>
<path d="M38.9229 25.7666C36.4955 29.6099 34.0719 31.9821 31.7178 33.2441C29.3497 34.5136 27.0778 34.6451 25.0127 34.0557C20.9322 32.891 17.7467 28.9416 16.0576 25.7324L16.9424 25.2676C18.5867 28.3916 21.6013 32.0417 25.2871 33.0938C27.1054 33.6127 29.109 33.5074 31.2451 32.3623C33.395 31.2097 35.7046 28.9898 38.0771 25.2334L38.9229 25.7666Z" fill="white"/>
<path d="M70.6052 18.7695C70.2319 18.7695 69.9252 18.6562 69.6852 18.4295C69.4452 18.1895 69.3252 17.8962 69.3252 17.5495V5.94953H71.9252V17.5495C71.9252 17.8962 71.7986 18.1895 71.5452 18.4295C71.3052 18.6562 70.9919 18.7695 70.6052 18.7695ZM66.1852 7.06953C65.8386 7.06953 65.5452 6.96286 65.3052 6.74953C65.0786 6.5362 64.9652 6.2562 64.9652 5.90953C64.9652 5.56286 65.0786 5.28953 65.3052 5.08953C65.5452 4.8762 65.8386 4.76953 66.1852 4.76953H75.0652C75.4119 4.76953 75.6986 4.8762 75.9252 5.08953C76.1652 5.30286 76.2852 5.58286 76.2852 5.92953C76.2852 6.2762 76.1652 6.5562 75.9252 6.76953C75.6986 6.96953 75.4119 7.06953 75.0652 7.06953H66.1852Z" fill="black"/>
<path d="M79.6648 4.76953C79.9848 4.76953 80.2648 4.88953 80.5048 5.12953C80.7581 5.3562 80.8848 5.64286 80.8848 5.98953V17.5495C80.8848 17.8962 80.7581 18.1895 80.5048 18.4295C80.2514 18.6562 79.9581 18.7695 79.6248 18.7695C79.2514 18.7695 78.9514 18.6562 78.7248 18.4295C78.4981 18.1895 78.3848 17.8962 78.3848 17.5495V5.98953C78.3848 5.64286 78.5048 5.3562 78.7448 5.12953C78.9848 4.88953 79.2914 4.76953 79.6648 4.76953ZM88.5248 4.76953C88.8981 4.76953 89.1981 4.88953 89.4248 5.12953C89.6514 5.3562 89.7648 5.64286 89.7648 5.98953V17.5495C89.7648 17.8962 89.6448 18.1895 89.4048 18.4295C89.1781 18.6562 88.8714 18.7695 88.4848 18.7695C88.1648 18.7695 87.8781 18.6562 87.6248 18.4295C87.3848 18.1895 87.2648 17.8962 87.2648 17.5495V5.98953C87.2648 5.64286 87.3914 5.3562 87.6448 5.12953C87.8981 4.88953 88.1914 4.76953 88.5248 4.76953ZM79.6048 10.5895H88.5248V12.8895H79.6048V10.5895Z" fill="black"/>
<path d="M97.8998 7.90953L93.5798 18.0695C93.4864 18.3229 93.3398 18.5229 93.1398 18.6695C92.9531 18.8029 92.7464 18.8695 92.5198 18.8695C92.1598 18.8695 91.8931 18.7695 91.7198 18.5695C91.5464 18.3695 91.4598 18.1229 91.4598 17.8295C91.4598 17.7095 91.4798 17.5829 91.5198 17.4495L96.4998 5.48953C96.6064 5.22286 96.7664 5.0162 96.9798 4.86953C97.2064 4.72286 97.4464 4.66286 97.6998 4.68953C97.9398 4.68953 98.1598 4.76286 98.3598 4.90953C98.5731 5.04286 98.7264 5.2362 98.8198 5.48953L103.74 17.2095C103.806 17.3829 103.84 17.5429 103.84 17.6895C103.84 18.0495 103.72 18.3362 103.48 18.5495C103.253 18.7629 103 18.8695 102.72 18.8695C102.48 18.8695 102.26 18.7962 102.06 18.6495C101.873 18.5029 101.726 18.3029 101.62 18.0495L97.3198 8.02953L97.8998 7.90953ZM94.1998 15.6295L95.2998 13.3295H100.7L101.08 15.6295H94.1998Z" fill="black"/>
<path d="M108.033 17.5495C108.033 17.8962 107.907 18.1895 107.653 18.4295C107.4 18.6562 107.107 18.7695 106.773 18.7695C106.4 18.7695 106.1 18.6562 105.873 18.4295C105.647 18.1895 105.533 17.8962 105.533 17.5495V5.98953C105.533 5.64286 105.653 5.3562 105.893 5.12953C106.133 4.88953 106.44 4.76953 106.813 4.76953C107.133 4.76953 107.413 4.88953 107.653 5.12953C107.907 5.3562 108.033 5.64286 108.033 5.98953V17.5495Z" fill="black"/>
<path d="M75.6652 28.68C76.0119 28.8533 76.2119 29.1267 76.2652 29.5C76.3319 29.8733 76.2386 30.2133 75.9852 30.52C75.8119 30.76 75.5852 30.8933 75.3052 30.92C75.0386 30.9467 74.7652 30.8933 74.4852 30.76C74.1652 30.6133 73.8252 30.5 73.4652 30.42C73.1186 30.34 72.7519 30.3 72.3652 30.3C71.6452 30.3 70.9986 30.4133 70.4252 30.64C69.8652 30.8667 69.3852 31.1933 68.9852 31.62C68.5852 32.0333 68.2786 32.5267 68.0652 33.1C67.8652 33.6733 67.7652 34.3067 67.7652 35C67.7652 35.8133 67.8786 36.52 68.1052 37.12C68.3452 37.72 68.6719 38.22 69.0852 38.62C69.4986 39.02 69.9852 39.32 70.5452 39.52C71.1052 39.7067 71.7119 39.8 72.3652 39.8C72.7252 39.8 73.0852 39.7667 73.4452 39.7C73.8052 39.6333 74.1519 39.5133 74.4852 39.34C74.7652 39.2067 75.0386 39.16 75.3052 39.2C75.5852 39.24 75.8186 39.38 76.0052 39.62C76.2719 39.9533 76.3652 40.3 76.2852 40.66C76.2186 41.0067 76.0186 41.26 75.6852 41.42C75.3386 41.5933 74.9786 41.74 74.6052 41.86C74.2452 41.9667 73.8786 42.0467 73.5052 42.1C73.1319 42.1667 72.7519 42.2 72.3652 42.2C71.4052 42.2 70.4919 42.0467 69.6252 41.74C68.7719 41.4333 68.0052 40.98 67.3252 40.38C66.6586 39.78 66.1319 39.0333 65.7452 38.14C65.3586 37.2333 65.1652 36.1867 65.1652 35C65.1652 33.9733 65.3386 33.0267 65.6852 32.16C66.0452 31.2933 66.5452 30.5467 67.1852 29.92C67.8386 29.28 68.6052 28.7867 69.4852 28.44C70.3652 28.08 71.3252 27.9 72.3652 27.9C72.9519 27.9 73.5252 27.9667 74.0852 28.1C74.6452 28.2333 75.1719 28.4267 75.6652 28.68Z" fill="black"/>
<path d="M91.2843 35C91.2843 36 91.1176 36.9333 90.7843 37.8C90.451 38.6667 89.9776 39.4333 89.3643 40.1C88.7643 40.7533 88.0443 41.2667 87.2043 41.64C86.3776 42.0133 85.471 42.2 84.4843 42.2C83.4976 42.2 82.591 42.0133 81.7643 41.64C80.9376 41.2667 80.2176 40.7533 79.6043 40.1C79.0043 39.4333 78.5376 38.6667 78.2043 37.8C77.871 36.9333 77.7043 36 77.7043 35C77.7043 34 77.871 33.0667 78.2043 32.2C78.5376 31.3333 79.0043 30.5733 79.6043 29.92C80.2176 29.2533 80.9376 28.7333 81.7643 28.36C82.591 27.9867 83.4976 27.8 84.4843 27.8C85.471 27.8 86.3776 27.9867 87.2043 28.36C88.0443 28.7333 88.7643 29.2533 89.3643 29.92C89.9776 30.5733 90.451 31.3333 90.7843 32.2C91.1176 33.0667 91.2843 34 91.2843 35ZM88.6843 35C88.6843 34.1067 88.5043 33.3 88.1443 32.58C87.7843 31.8467 87.291 31.2667 86.6643 30.84C86.0376 30.4133 85.311 30.2 84.4843 30.2C83.6576 30.2 82.931 30.4133 82.3043 30.84C81.6776 31.2667 81.1843 31.84 80.8243 32.56C80.4776 33.28 80.3043 34.0933 80.3043 35C80.3043 35.8933 80.4776 36.7067 80.8243 37.44C81.1843 38.16 81.6776 38.7333 82.3043 39.16C82.931 39.5867 83.6576 39.8 84.4843 39.8C85.311 39.8 86.0376 39.5867 86.6643 39.16C87.291 38.7333 87.7843 38.16 88.1443 37.44C88.5043 36.7067 88.6843 35.8933 88.6843 35Z" fill="black"/>
<path d="M98.0801 42.2C97.1467 42.2 96.3067 42.0867 95.5601 41.86C94.8134 41.62 94.1001 41.2067 93.4201 40.62C93.2467 40.4733 93.1134 40.3067 93.0201 40.12C92.9267 39.9333 92.8801 39.7467 92.8801 39.56C92.8801 39.2533 92.9867 38.9867 93.2001 38.76C93.4267 38.52 93.7067 38.4 94.0401 38.4C94.2934 38.4 94.5201 38.48 94.7201 38.64C95.2267 39.0533 95.7267 39.3667 96.2201 39.58C96.7267 39.7933 97.3467 39.9 98.0801 39.9C98.5734 39.9 99.0267 39.8267 99.4401 39.68C99.8534 39.52 100.187 39.3133 100.44 39.06C100.693 38.7933 100.82 38.4933 100.82 38.16C100.82 37.76 100.7 37.42 100.46 37.14C100.22 36.86 99.8534 36.6267 99.3601 36.44C98.8667 36.24 98.2401 36.0867 97.4801 35.98C96.7601 35.8733 96.1267 35.7133 95.5801 35.5C95.0334 35.2733 94.5734 34.9933 94.2001 34.66C93.8401 34.3133 93.5667 33.9133 93.3801 33.46C93.1934 32.9933 93.1001 32.4733 93.1001 31.9C93.1001 31.0333 93.3201 30.2933 93.7601 29.68C94.2134 29.0667 94.8201 28.6 95.5801 28.28C96.3401 27.96 97.1801 27.8 98.1001 27.8C98.9667 27.8 99.7667 27.9333 100.5 28.2C101.247 28.4533 101.853 28.78 102.32 29.18C102.707 29.4867 102.9 29.84 102.9 30.24C102.9 30.5333 102.787 30.8 102.56 31.04C102.333 31.28 102.067 31.4 101.76 31.4C101.56 31.4 101.38 31.34 101.22 31.22C101.007 31.0333 100.72 30.86 100.36 30.7C100 30.5267 99.6201 30.3867 99.2201 30.28C98.8201 30.16 98.4467 30.1 98.1001 30.1C97.5267 30.1 97.0401 30.1733 96.6401 30.32C96.2534 30.4667 95.9601 30.6667 95.7601 30.92C95.5601 31.1733 95.4601 31.4667 95.4601 31.8C95.4601 32.2 95.5734 32.5333 95.8001 32.8C96.0401 33.0533 96.3801 33.26 96.8201 33.42C97.2601 33.5667 97.7867 33.7 98.4001 33.82C99.2001 33.9667 99.9001 34.14 100.5 34.34C101.113 34.54 101.62 34.8 102.02 35.12C102.42 35.4267 102.72 35.82 102.92 36.3C103.12 36.7667 103.22 37.34 103.22 38.02C103.22 38.8867 102.98 39.6333 102.5 40.26C102.02 40.8867 101.387 41.3667 100.6 41.7C99.8267 42.0333 98.9867 42.2 98.0801 42.2Z" fill="black"/>
<path d="M106.774 27.98C106.96 27.98 107.154 28.0333 107.354 28.14C107.567 28.2333 107.727 28.36 107.834 28.52L112.694 36L111.694 35.96L116.674 28.52C116.927 28.16 117.254 27.98 117.654 27.98C117.974 27.98 118.26 28.0933 118.514 28.32C118.767 28.5467 118.894 28.84 118.894 29.2V40.78C118.894 41.1267 118.78 41.42 118.554 41.66C118.327 41.8867 118.027 42 117.654 42C117.28 42 116.974 41.8867 116.734 41.66C116.507 41.42 116.394 41.1267 116.394 40.78V31.36L117.174 31.54L113.094 37.76C112.974 37.9067 112.82 38.0333 112.634 38.14C112.46 38.2467 112.28 38.2933 112.094 38.28C111.92 38.2933 111.74 38.2467 111.554 38.14C111.38 38.0333 111.234 37.9067 111.114 37.76L107.294 31.72L107.814 30.66V40.78C107.814 41.1267 107.707 41.42 107.494 41.66C107.28 41.8867 107 42 106.654 42C106.32 42 106.047 41.8867 105.834 41.66C105.62 41.42 105.514 41.1267 105.514 40.78V29.2C105.514 28.8667 105.634 28.58 105.874 28.34C106.127 28.1 106.427 27.98 106.774 27.98Z" fill="black"/>
<path d="M123.12 28H129.82C130.167 28 130.454 28.1133 130.68 28.34C130.92 28.5533 131.04 28.8333 131.04 29.18C131.04 29.5133 130.92 29.7867 130.68 30C130.454 30.2 130.167 30.3 129.82 30.3H124.22L124.4 29.96V33.86L124.24 33.7H128.92C129.267 33.7 129.554 33.8133 129.78 34.04C130.02 34.2533 130.14 34.5333 130.14 34.88C130.14 35.2133 130.02 35.4867 129.78 35.7C129.554 35.9 129.267 36 128.92 36H124.3L124.4 35.84V39.88L124.24 39.7H129.82C130.167 39.7 130.454 39.82 130.68 40.06C130.92 40.2867 131.04 40.5533 131.04 40.86C131.04 41.1933 130.92 41.4667 130.68 41.68C130.454 41.8933 130.167 42 129.82 42H123.12C122.774 42 122.48 41.8867 122.24 41.66C122.014 41.42 121.9 41.1267 121.9 40.78V29.22C121.9 28.8733 122.014 28.5867 122.24 28.36C122.48 28.12 122.774 28 123.12 28Z" fill="black"/>
<path d="M138.086 42C137.712 42 137.406 41.8867 137.166 41.66C136.926 41.42 136.806 41.1267 136.806 40.78V29.18H139.406V40.78C139.406 41.1267 139.279 41.42 139.026 41.66C138.786 41.8867 138.472 42 138.086 42ZM133.666 30.3C133.319 30.3 133.026 30.1933 132.786 29.98C132.559 29.7667 132.446 29.4867 132.446 29.14C132.446 28.7933 132.559 28.52 132.786 28.32C133.026 28.1067 133.319 28 133.666 28H142.546C142.892 28 143.179 28.1067 143.406 28.32C143.646 28.5333 143.766 28.8133 143.766 29.16C143.766 29.5067 143.646 29.7867 143.406 30C143.179 30.2 142.892 30.3 142.546 30.3H133.666Z" fill="black"/>
<path d="M148.365 40.78C148.365 41.1267 148.239 41.42 147.985 41.66C147.732 41.8867 147.439 42 147.105 42C146.732 42 146.432 41.8867 146.205 41.66C145.979 41.42 145.865 41.1267 145.865 40.78V29.22C145.865 28.8733 145.985 28.5867 146.225 28.36C146.465 28.12 146.772 28 147.145 28C147.465 28 147.745 28.12 147.985 28.36C148.239 28.5867 148.365 28.8733 148.365 29.22V40.78Z" fill="black"/>
<path d="M161.173 28.68C161.52 28.8533 161.72 29.1267 161.773 29.5C161.84 29.8733 161.746 30.2133 161.493 30.52C161.32 30.76 161.093 30.8933 160.813 30.92C160.546 30.9467 160.273 30.8933 159.993 30.76C159.673 30.6133 159.333 30.5 158.973 30.42C158.626 30.34 158.26 30.3 157.873 30.3C157.153 30.3 156.506 30.4133 155.933 30.64C155.373 30.8667 154.893 31.1933 154.493 31.62C154.093 32.0333 153.786 32.5267 153.573 33.1C153.373 33.6733 153.273 34.3067 153.273 35C153.273 35.8133 153.386 36.52 153.613 37.12C153.853 37.72 154.18 38.22 154.593 38.62C155.006 39.02 155.493 39.32 156.053 39.52C156.613 39.7067 157.22 39.8 157.873 39.8C158.233 39.8 158.593 39.7667 158.953 39.7C159.313 39.6333 159.66 39.5133 159.993 39.34C160.273 39.2067 160.546 39.16 160.813 39.2C161.093 39.24 161.326 39.38 161.513 39.62C161.78 39.9533 161.873 40.3 161.793 40.66C161.726 41.0067 161.526 41.26 161.193 41.42C160.846 41.5933 160.486 41.74 160.113 41.86C159.753 41.9667 159.386 42.0467 159.013 42.1C158.64 42.1667 158.26 42.2 157.873 42.2C156.913 42.2 156 42.0467 155.133 41.74C154.28 41.4333 153.513 40.98 152.833 40.38C152.166 39.78 151.64 39.0333 151.253 38.14C150.866 37.2333 150.673 36.1867 150.673 35C150.673 33.9733 150.846 33.0267 151.193 32.16C151.553 31.2933 152.053 30.5467 152.693 29.92C153.346 29.28 154.113 28.7867 154.993 28.44C155.873 28.08 156.833 27.9 157.873 27.9C158.46 27.9 159.033 27.9667 159.593 28.1C160.153 28.2333 160.68 28.4267 161.173 28.68Z" fill="black"/>
<path d="M168.412 42.2C167.479 42.2 166.639 42.0867 165.892 41.86C165.145 41.62 164.432 41.2067 163.752 40.62C163.579 40.4733 163.445 40.3067 163.352 40.12C163.259 39.9333 163.212 39.7467 163.212 39.56C163.212 39.2533 163.319 38.9867 163.532 38.76C163.759 38.52 164.039 38.4 164.372 38.4C164.625 38.4 164.852 38.48 165.052 38.64C165.559 39.0533 166.059 39.3667 166.552 39.58C167.059 39.7933 167.679 39.9 168.412 39.9C168.905 39.9 169.359 39.8267 169.772 39.68C170.185 39.52 170.519 39.3133 170.772 39.06C171.025 38.7933 171.152 38.4933 171.152 38.16C171.152 37.76 171.032 37.42 170.792 37.14C170.552 36.86 170.185 36.6267 169.692 36.44C169.199 36.24 168.572 36.0867 167.812 35.98C167.092 35.8733 166.459 35.7133 165.912 35.5C165.365 35.2733 164.905 34.9933 164.532 34.66C164.172 34.3133 163.899 33.9133 163.712 33.46C163.525 32.9933 163.432 32.4733 163.432 31.9C163.432 31.0333 163.652 30.2933 164.092 29.68C164.545 29.0667 165.152 28.6 165.912 28.28C166.672 27.96 167.512 27.8 168.432 27.8C169.299 27.8 170.099 27.9333 170.832 28.2C171.579 28.4533 172.185 28.78 172.652 29.18C173.039 29.4867 173.232 29.84 173.232 30.24C173.232 30.5333 173.119 30.8 172.892 31.04C172.665 31.28 172.399 31.4 172.092 31.4C171.892 31.4 171.712 31.34 171.552 31.22C171.339 31.0333 171.052 30.86 170.692 30.7C170.332 30.5267 169.952 30.3867 169.552 30.28C169.152 30.16 168.779 30.1 168.432 30.1C167.859 30.1 167.372 30.1733 166.972 30.32C166.585 30.4667 166.292 30.6667 166.092 30.92C165.892 31.1733 165.792 31.4667 165.792 31.8C165.792 32.2 165.905 32.5333 166.132 32.8C166.372 33.0533 166.712 33.26 167.152 33.42C167.592 33.5667 168.119 33.7 168.732 33.82C169.532 33.9667 170.232 34.14 170.832 34.34C171.445 34.54 171.952 34.8 172.352 35.12C172.752 35.4267 173.052 35.82 173.252 36.3C173.452 36.7667 173.552 37.34 173.552 38.02C173.552 38.8867 173.312 39.6333 172.832 40.26C172.352 40.8867 171.719 41.3667 170.932 41.7C170.159 42.0333 169.319 42.2 168.412 42.2Z" fill="black"/>
</svg>
