<svg width="171" height="49" viewBox="0 0 171 49" fill="none" xmlns="http://www.w3.org/2000/svg">
<path d="M0 24.5C0 10.969 10.969 0 24.5 0H30.5C44.031 0 55 10.969 55 24.5C55 38.031 44.031 49 30.5 49H24.5C10.969 49 0 38.031 0 24.5Z" fill="#01A49E"/>
<path d="M68.9198 32.0999C69.9865 32.0999 70.7731 32.3599 71.2798 32.8799C71.7865 33.3866 72.1198 34.0466 72.2798 34.8599L71.9398 34.6799L72.0998 34.3599C72.2598 34.0532 72.5065 33.7266 72.8398 33.3799C73.1731 33.0199 73.5731 32.7199 74.0398 32.4799C74.5198 32.2266 75.0531 32.0999 75.6398 32.0999C76.5998 32.0999 77.3265 32.3066 77.8198 32.7199C78.3265 33.1332 78.6731 33.6866 78.8598 34.3799C79.0465 35.0599 79.1398 35.8199 79.1398 36.6599V41.7799C79.1398 42.1266 79.0265 42.4199 78.7998 42.6599C78.5731 42.8866 78.2865 42.9999 77.9398 42.9999C77.5931 42.9999 77.3065 42.8866 77.0798 42.6599C76.8531 42.4199 76.7398 42.1266 76.7398 41.7799V36.6599C76.7398 36.2199 76.6865 35.8266 76.5798 35.4799C76.4731 35.1199 76.2798 34.8332 75.9998 34.6199C75.7198 34.4066 75.3198 34.2999 74.7998 34.2999C74.2931 34.2999 73.8598 34.4066 73.4998 34.6199C73.1398 34.8332 72.8665 35.1199 72.6798 35.4799C72.5065 35.8266 72.4198 36.2199 72.4198 36.6599V41.7799C72.4198 42.1266 72.3065 42.4199 72.0798 42.6599C71.8531 42.8866 71.5665 42.9999 71.2198 42.9999C70.8731 42.9999 70.5865 42.8866 70.3598 42.6599C70.1331 42.4199 70.0198 42.1266 70.0198 41.7799V36.6599C70.0198 36.2199 69.9665 35.8266 69.8598 35.4799C69.7531 35.1199 69.5598 34.8332 69.2798 34.6199C68.9998 34.4066 68.5998 34.2999 68.0798 34.2999C67.5731 34.2999 67.1398 34.4066 66.7798 34.6199C66.4198 34.8332 66.1465 35.1199 65.9598 35.4799C65.7865 35.8266 65.6998 36.2199 65.6998 36.6599V41.7799C65.6998 42.1266 65.5865 42.4199 65.3598 42.6599C65.1331 42.8866 64.8465 42.9999 64.4998 42.9999C64.1531 42.9999 63.8665 42.8866 63.6398 42.6599C63.4131 42.4199 63.2998 42.1266 63.2998 41.7799V33.5199C63.2998 33.1732 63.4131 32.8866 63.6398 32.6599C63.8665 32.4199 64.1531 32.2999 64.4998 32.2999C64.8465 32.2999 65.1331 32.4199 65.3598 32.6599C65.5865 32.8866 65.6998 33.1732 65.6998 33.5199V34.3799L65.3998 34.3199C65.5198 34.0932 65.6865 33.8532 65.8998 33.5999C66.1131 33.3332 66.3731 33.0866 66.6798 32.8599C66.9865 32.6332 67.3265 32.4532 67.6998 32.3199C68.0731 32.1732 68.4798 32.0999 68.9198 32.0999Z" fill="black"/>
<path d="M97.8973 32.0999C98.244 32.0999 98.5306 32.2132 98.7573 32.4399C98.984 32.6666 99.0973 32.9599 99.0973 33.3199V41.7799C99.0973 42.1266 98.984 42.4199 98.7573 42.6599C98.5306 42.8866 98.244 42.9999 97.8973 42.9999C97.5506 42.9999 97.264 42.8866 97.0373 42.6599C96.8106 42.4199 96.6973 42.1266 96.6973 41.7799V40.7999L97.1373 40.9799C97.1373 41.1532 97.044 41.3666 96.8573 41.6199C96.6706 41.8599 96.4173 42.0999 96.0973 42.3399C95.7773 42.5799 95.3973 42.7866 94.9573 42.9599C94.5306 43.1199 94.064 43.1999 93.5573 43.1999C92.6373 43.1999 91.804 42.9666 91.0573 42.4999C90.3106 42.0199 89.7173 41.3666 89.2773 40.5399C88.8506 39.6999 88.6373 38.7399 88.6373 37.6599C88.6373 36.5666 88.8506 35.6066 89.2773 34.7799C89.7173 33.9399 90.304 33.2866 91.0373 32.8199C91.7706 32.3399 92.584 32.0999 93.4773 32.0999C94.0506 32.0999 94.5773 32.1866 95.0573 32.3599C95.5373 32.5332 95.9506 32.7532 96.2973 33.0199C96.6573 33.2866 96.9306 33.5599 97.1173 33.8399C97.3173 34.1066 97.4173 34.3332 97.4173 34.5199L96.6973 34.7799V33.3199C96.6973 32.9732 96.8106 32.6866 97.0373 32.4599C97.264 32.2199 97.5506 32.0999 97.8973 32.0999ZM93.8573 40.9999C94.444 40.9999 94.9573 40.8532 95.3973 40.5599C95.8373 40.2666 96.1773 39.8666 96.4173 39.3599C96.6706 38.8532 96.7973 38.2866 96.7973 37.6599C96.7973 37.0199 96.6706 36.4466 96.4173 35.9399C96.1773 35.4332 95.8373 35.0332 95.3973 34.7399C94.9573 34.4466 94.444 34.2999 93.8573 34.2999C93.284 34.2999 92.7773 34.4466 92.3373 34.7399C91.8973 35.0332 91.5506 35.4332 91.2973 35.9399C91.0573 36.4466 90.9373 37.0199 90.9373 37.6599C90.9373 38.2866 91.0573 38.8532 91.2973 39.3599C91.5506 39.8666 91.8973 40.2666 92.3373 40.5599C92.7773 40.8532 93.284 40.9999 93.8573 40.9999Z" fill="black"/>
<path d="M110.296 42.9999C109.949 42.9999 109.663 42.8866 109.436 42.6599C109.209 42.4199 109.096 42.1266 109.096 41.7799V33.5199C109.096 33.1732 109.209 32.8866 109.436 32.6599C109.663 32.4199 109.949 32.2999 110.296 32.2999C110.643 32.2999 110.929 32.4199 111.156 32.6599C111.383 32.8866 111.496 33.1732 111.496 33.5199V35.3999L111.356 34.0599C111.503 33.7399 111.689 33.4599 111.916 33.2199C112.156 32.9666 112.423 32.7599 112.716 32.5999C113.009 32.4266 113.323 32.2999 113.656 32.2199C113.989 32.1399 114.323 32.0999 114.656 32.0999C115.056 32.0999 115.389 32.2132 115.656 32.4399C115.936 32.6666 116.076 32.9332 116.076 33.2399C116.076 33.6799 115.963 33.9999 115.736 34.1999C115.509 34.3866 115.263 34.4799 114.996 34.4799C114.743 34.4799 114.509 34.4332 114.296 34.3399C114.096 34.2466 113.863 34.1999 113.596 34.1999C113.356 34.1999 113.109 34.2599 112.856 34.3799C112.616 34.4866 112.389 34.6599 112.176 34.8999C111.976 35.1399 111.809 35.4399 111.676 35.7999C111.556 36.1466 111.496 36.5599 111.496 37.0399V41.7799C111.496 42.1266 111.383 42.4199 111.156 42.6599C110.929 42.8866 110.643 42.9999 110.296 42.9999Z" fill="black"/>
<path d="M126.568 42.9999C126.221 42.9999 125.934 42.8866 125.708 42.6599C125.481 42.4199 125.368 42.1266 125.368 41.7799V29.4199C125.368 29.0732 125.481 28.7866 125.708 28.5599C125.934 28.3199 126.221 28.1999 126.568 28.1999C126.914 28.1999 127.201 28.3199 127.428 28.5599C127.654 28.7866 127.768 29.0732 127.768 29.4199V41.7799C127.768 42.1266 127.654 42.4199 127.428 42.6599C127.201 42.8866 126.914 42.9999 126.568 42.9999ZM132.928 32.2999C133.234 32.2999 133.501 32.4266 133.728 32.6799C133.954 32.9332 134.068 33.1799 134.068 33.4199C134.068 33.7399 133.908 34.0399 133.588 34.3199L127.568 39.8599L127.468 37.0999L132.048 32.6799C132.301 32.4266 132.594 32.2999 132.928 32.2999ZM133.228 42.9799C132.881 42.9799 132.588 42.8466 132.348 42.5799L128.648 38.6599L130.468 36.9799L134.068 40.8999C134.321 41.1666 134.448 41.4666 134.448 41.7999C134.448 42.1466 134.308 42.4332 134.028 42.6599C133.761 42.8732 133.494 42.9799 133.228 42.9799Z" fill="black"/>
<path d="M148.545 43.1999C147.412 43.1999 146.425 42.9666 145.585 42.4999C144.759 42.0199 144.119 41.3732 143.665 40.5599C143.225 39.7466 143.005 38.8266 143.005 37.7999C143.005 36.5999 143.245 35.5799 143.725 34.7399C144.219 33.8866 144.859 33.2332 145.645 32.7799C146.432 32.3266 147.265 32.0999 148.145 32.0999C148.825 32.0999 149.465 32.2399 150.065 32.5199C150.679 32.7999 151.219 33.1866 151.685 33.6799C152.152 34.1599 152.519 34.7199 152.785 35.3599C153.065 35.9999 153.205 36.6799 153.205 37.3999C153.192 37.7199 153.065 37.9799 152.825 38.1799C152.585 38.3799 152.305 38.4799 151.985 38.4799H144.345L143.745 36.4799H151.085L150.645 36.8799V36.3399C150.619 35.9532 150.479 35.6066 150.225 35.2999C149.985 34.9932 149.679 34.7532 149.305 34.5799C148.945 34.3932 148.559 34.2999 148.145 34.2999C147.745 34.2999 147.372 34.3532 147.025 34.4599C146.679 34.5666 146.379 34.7466 146.125 34.9999C145.872 35.2532 145.672 35.5932 145.525 36.0199C145.379 36.4466 145.305 36.9866 145.305 37.6399C145.305 38.3599 145.452 38.9732 145.745 39.4799C146.052 39.9732 146.439 40.3532 146.905 40.6199C147.385 40.8732 147.892 40.9999 148.425 40.9999C148.919 40.9999 149.312 40.9599 149.605 40.8799C149.899 40.7999 150.132 40.7066 150.305 40.5999C150.492 40.4799 150.659 40.3799 150.805 40.2999C151.045 40.1799 151.272 40.1199 151.485 40.1199C151.779 40.1199 152.019 40.2199 152.205 40.4199C152.405 40.6199 152.505 40.8532 152.505 41.1199C152.505 41.4799 152.319 41.8066 151.945 42.0999C151.599 42.3932 151.112 42.6532 150.485 42.8799C149.859 43.0932 149.212 43.1999 148.545 43.1999Z" fill="black"/>
<path d="M162.822 32.4999H167.562C167.882 32.4999 168.149 32.6066 168.362 32.8199C168.575 33.0332 168.682 33.2999 168.682 33.6199C168.682 33.9266 168.575 34.1866 168.362 34.3999C168.149 34.5999 167.882 34.6999 167.562 34.6999H162.822C162.502 34.6999 162.235 34.5932 162.022 34.3799C161.809 34.1666 161.702 33.8999 161.702 33.5799C161.702 33.2732 161.809 33.0199 162.022 32.8199C162.235 32.6066 162.502 32.4999 162.822 32.4999ZM164.962 29.9999C165.309 29.9999 165.589 30.1199 165.802 30.3599C166.029 30.5866 166.142 30.8732 166.142 31.2199V40.1199C166.142 40.3066 166.175 40.4599 166.242 40.5799C166.322 40.6999 166.422 40.7866 166.542 40.8399C166.675 40.8932 166.815 40.9199 166.962 40.9199C167.122 40.9199 167.269 40.8932 167.402 40.8399C167.535 40.7732 167.689 40.7399 167.862 40.7399C168.049 40.7399 168.215 40.8266 168.362 40.9999C168.522 41.1732 168.602 41.4132 168.602 41.7199C168.602 42.0932 168.395 42.3999 167.982 42.6399C167.582 42.8799 167.149 42.9999 166.682 42.9999C166.402 42.9999 166.089 42.9799 165.742 42.9399C165.409 42.8866 165.089 42.7732 164.782 42.5999C164.489 42.4132 164.242 42.1332 164.042 41.7599C163.842 41.3866 163.742 40.8732 163.742 40.2199V31.2199C163.742 30.8732 163.855 30.5866 164.082 30.3599C164.322 30.1199 164.615 29.9999 164.962 29.9999Z" fill="black"/>
<path d="M72.8638 4.39991C74.6558 4.39991 75.9905 4.81991 76.8678 5.65991C77.7451 6.49991 78.1838 7.74125 78.1838 9.38391C78.1838 10.2612 77.9691 11.0359 77.5398 11.7079C77.1105 12.3612 76.4758 12.8746 75.6358 13.2479C74.7958 13.6026 73.7598 13.7799 72.5278 13.7799L72.6398 12.5199C73.2185 12.5199 73.8811 12.6039 74.6278 12.7719C75.3745 12.9212 76.0931 13.2012 76.7838 13.6119C77.4931 14.0039 78.0718 14.5639 78.5198 15.2919C78.9865 16.0012 79.2198 16.9159 79.2198 18.0359C79.2198 19.2679 79.0145 20.2759 78.6038 21.0599C78.2118 21.8439 77.6891 22.4506 77.0358 22.8799C76.3825 23.3092 75.6825 23.6079 74.9358 23.7759C74.1891 23.9252 73.4705 23.9999 72.7798 23.9999H65.8078C65.3225 23.9999 64.9118 23.8412 64.5758 23.5239C64.2585 23.1879 64.0998 22.7772 64.0998 22.2919V6.10791C64.0998 5.62258 64.2585 5.22125 64.5758 4.90391C64.9118 4.56791 65.3225 4.39991 65.8078 4.39991H72.8638ZM72.3598 7.70391H67.3758L67.7398 7.25591V12.3239L67.4038 12.0719H72.4438C72.9851 12.0719 73.4705 11.8946 73.8998 11.5399C74.3291 11.1852 74.5438 10.6719 74.5438 9.99991C74.5438 9.19725 74.3385 8.61858 73.9278 8.26391C73.5358 7.89058 73.0131 7.70391 72.3598 7.70391ZM72.5838 15.3759H67.4878L67.7398 15.1519V21.0599L67.4598 20.7799H72.7798C73.6385 20.7799 74.3198 20.5559 74.8238 20.1079C75.3278 19.6412 75.5798 18.9506 75.5798 18.0359C75.5798 17.1959 75.4118 16.5892 75.0758 16.2159C74.7398 15.8426 74.3385 15.6092 73.8718 15.5159C73.4051 15.4226 72.9758 15.3759 72.5838 15.3759Z" fill="black"/>
<path d="M84.7155 4.39991H94.0955C94.5808 4.39991 94.9821 4.55858 95.2995 4.87591C95.6355 5.17458 95.8035 5.56658 95.8035 6.05191C95.8035 6.51858 95.6355 6.90125 95.2995 7.19991C94.9821 7.47991 94.5808 7.61991 94.0955 7.61991H86.2555L86.5075 7.14391V12.6039L86.2835 12.3799H92.8355C93.3208 12.3799 93.7221 12.5386 94.0395 12.8559C94.3755 13.1546 94.5435 13.5466 94.5435 14.0319C94.5435 14.4986 94.3755 14.8812 94.0395 15.1799C93.7221 15.4599 93.3208 15.5999 92.8355 15.5999H86.3675L86.5075 15.3759V21.0319L86.2835 20.7799H94.0955C94.5808 20.7799 94.9821 20.9479 95.2995 21.2839C95.6355 21.6012 95.8035 21.9746 95.8035 22.4039C95.8035 22.8706 95.6355 23.2532 95.2995 23.5519C94.9821 23.8506 94.5808 23.9999 94.0955 23.9999H84.7155C84.2301 23.9999 83.8195 23.8412 83.4835 23.5239C83.1661 23.1879 83.0075 22.7772 83.0075 22.2919V6.10791C83.0075 5.62258 83.1661 5.22125 83.4835 4.90391C83.8195 4.56791 84.2301 4.39991 84.7155 4.39991Z" fill="black"/>
<path d="M106.787 8.79591L100.739 23.0199C100.608 23.3746 100.403 23.6546 100.123 23.8599C99.8616 24.0466 99.5722 24.1399 99.2549 24.1399C98.7509 24.1399 98.3776 23.9999 98.1349 23.7199C97.8922 23.4399 97.7709 23.0946 97.7709 22.6839C97.7709 22.5159 97.7989 22.3386 97.8549 22.1519L104.827 5.40791C104.976 5.03458 105.2 4.74525 105.499 4.53991C105.816 4.33458 106.152 4.25058 106.507 4.28791C106.843 4.28791 107.151 4.39058 107.431 4.59591C107.73 4.78258 107.944 5.05325 108.075 5.40791L114.963 21.8159C115.056 22.0586 115.103 22.2826 115.103 22.4879C115.103 22.9919 114.935 23.3932 114.599 23.6919C114.282 23.9906 113.927 24.1399 113.535 24.1399C113.199 24.1399 112.891 24.0372 112.611 23.8319C112.35 23.6266 112.144 23.3466 111.995 22.9919L105.975 8.96391L106.787 8.79591ZM101.607 19.6039L103.147 16.3839H110.707L111.239 19.6039H101.607Z" fill="black"/>
<path d="M131.676 4.37191C132.162 4.37191 132.554 4.53991 132.852 4.87591C133.151 5.19325 133.3 5.59458 133.3 6.07991V16.2159C133.3 17.7652 132.964 19.1372 132.292 20.3319C131.639 21.5266 130.734 22.4599 129.576 23.1319C128.419 23.8039 127.075 24.1399 125.544 24.1399C124.014 24.1399 122.66 23.8039 121.484 23.1319C120.327 22.4599 119.412 21.5266 118.74 20.3319C118.087 19.1372 117.76 17.7652 117.76 16.2159V6.07991C117.76 5.59458 117.928 5.19325 118.264 4.87591C118.6 4.53991 119.03 4.37191 119.552 4.37191C119.982 4.37191 120.364 4.53991 120.7 4.87591C121.055 5.19325 121.232 5.59458 121.232 6.07991V16.2159C121.232 17.1492 121.428 17.9612 121.82 18.6519C122.231 19.3239 122.763 19.8466 123.416 20.2199C124.088 20.5932 124.798 20.7799 125.544 20.7799C126.347 20.7799 127.094 20.5932 127.784 20.2199C128.475 19.8466 129.035 19.3239 129.464 18.6519C129.894 17.9612 130.108 17.1492 130.108 16.2159V6.07991C130.108 5.59458 130.248 5.19325 130.528 4.87591C130.808 4.53991 131.191 4.37191 131.676 4.37191Z" fill="black"/>
<path d="M144.698 23.9999C144.176 23.9999 143.746 23.8412 143.41 23.5239C143.074 23.1879 142.906 22.7772 142.906 22.2919V6.05191H146.546V22.2919C146.546 22.7772 146.369 23.1879 146.014 23.5239C145.678 23.8412 145.24 23.9999 144.698 23.9999ZM138.51 7.61991C138.025 7.61991 137.614 7.47058 137.278 7.17191C136.961 6.87325 136.802 6.48125 136.802 5.99591C136.802 5.51058 136.961 5.12791 137.278 4.84791C137.614 4.54925 138.025 4.39991 138.51 4.39991H150.942C151.428 4.39991 151.829 4.54925 152.146 4.84791C152.482 5.14658 152.65 5.53858 152.65 6.02391C152.65 6.50925 152.482 6.90125 152.146 7.19991C151.829 7.47991 151.428 7.61991 150.942 7.61991H138.51Z" fill="black"/>
<path d="M168.911 4.31591C169.341 4.31591 169.723 4.48391 170.059 4.81991C170.414 5.13725 170.591 5.54791 170.591 6.05191C170.591 6.21991 170.563 6.39725 170.507 6.58391C170.47 6.75191 170.395 6.91991 170.283 7.08791L163.927 16.1879L164.431 14.2559V22.2919C164.431 22.7772 164.263 23.1879 163.927 23.5239C163.61 23.8412 163.237 23.9999 162.807 23.9999C162.341 23.9999 161.939 23.8412 161.603 23.5239C161.286 23.1879 161.127 22.7772 161.127 22.2919V14.4799L161.351 15.3759L155.303 7.33991C155.117 7.09725 154.986 6.86391 154.911 6.63991C154.837 6.41591 154.799 6.21058 154.799 6.02391C154.799 5.51991 154.995 5.10925 155.387 4.79191C155.779 4.47458 156.181 4.31591 156.591 4.31591C157.114 4.31591 157.571 4.57725 157.963 5.09991L163.339 12.5199L162.555 12.4079L167.511 5.15591C167.903 4.59591 168.37 4.31591 168.911 4.31591Z" fill="black"/>
<path d="M37.6543 24.9667C37.8016 24.7333 38.1103 24.6632 38.3437 24.8104L39.1894 25.3436C39.3016 25.4144 39.3808 25.5268 39.4101 25.6561C39.4394 25.7854 39.4164 25.9209 39.3457 26.0331C36.891 29.9195 34.4102 32.3677 31.9541 33.6844C29.4701 35.0161 27.0643 35.1605 24.8759 34.536C20.5984 33.3148 17.3266 29.2162 15.6152 25.9647C15.5535 25.8474 15.5407 25.7104 15.58 25.5839C15.6194 25.4572 15.7077 25.3516 15.8252 25.2899L16.7099 24.8251L16.8037 24.787C17.027 24.7223 17.2722 24.8213 17.3847 25.035C19.0066 28.1163 21.9362 31.6174 25.4248 32.6131C27.1195 33.0967 28.9889 33.0045 31.0088 31.9217C33.0566 30.8239 35.3092 28.6795 37.6543 24.9667Z" fill="white"/>
</svg>
