<svg width="127" height="44" viewBox="0 0 127 44" fill="none" xmlns="http://www.w3.org/2000/svg">
<path d="M7.23359 13.92L5.75359 15.5V19H1.83359V5H5.75359V10.82L11.1736 5H15.5336L9.81359 11.2L15.8336 19H11.2336L7.23359 13.92ZM30.4248 19.28C28.9448 19.28 27.6115 18.9667 26.4248 18.34C25.2515 17.7133 24.3248 16.8467 23.6448 15.74C22.9782 14.6333 22.6448 13.3867 22.6448 12C22.6448 10.6133 22.9782 9.36667 23.6448 8.26C24.3248 7.15333 25.2515 6.28667 26.4248 5.66C27.6115 5.03333 28.9448 4.72 30.4248 4.72C31.9048 4.72 33.2315 5.03333 34.4048 5.66C35.5915 6.28667 36.5182 7.15333 37.1848 8.26C37.8648 9.36667 38.2048 10.6133 38.2048 12C38.2048 13.3867 37.8648 14.6333 37.1848 15.74C36.5182 16.8467 35.5915 17.7133 34.4048 18.34C33.2315 18.9667 31.9048 19.28 30.4248 19.28ZM30.4248 16C31.1315 16 31.7715 15.8333 32.3448 15.5C32.9182 15.1667 33.3715 14.7 33.7048 14.1C34.0382 13.4867 34.2048 12.7867 34.2048 12C34.2048 11.2133 34.0382 10.52 33.7048 9.92C33.3715 9.30667 32.9182 8.83333 32.3448 8.5C31.7715 8.16667 31.1315 8 30.4248 8C29.7182 8 29.0782 8.16667 28.5048 8.5C27.9315 8.83333 27.4782 9.30667 27.1448 9.92C26.8115 10.52 26.6448 11.2133 26.6448 12C26.6448 12.7867 26.8115 13.4867 27.1448 14.1C27.4782 14.7 27.9315 15.1667 28.5048 15.5C29.0782 15.8333 29.7182 16 30.4248 16ZM53.3989 15.28H51.2389V19H47.2789V5H53.6789C54.9456 5 56.0456 5.21333 56.9789 5.64C57.9122 6.05333 58.6322 6.65333 59.1389 7.44C59.6456 8.21333 59.8989 9.12667 59.8989 10.18C59.8989 11.1933 59.6589 12.08 59.1789 12.84C58.7122 13.5867 58.0389 14.1733 57.1589 14.6L60.1789 19H55.9389L53.3989 15.28ZM55.8989 10.18C55.8989 9.52667 55.6922 9.02 55.2789 8.66C54.8656 8.3 54.2522 8.12 53.4389 8.12H51.2389V12.22H53.4389C54.2522 12.22 54.8656 12.0467 55.2789 11.7C55.6922 11.34 55.8989 10.8333 55.8989 10.18ZM81.1236 17.94C80.4036 18.3533 79.5303 18.68 78.5036 18.92C77.4769 19.16 76.4103 19.28 75.3036 19.28C73.8103 19.28 72.5369 19.1 71.4836 18.74C70.4436 18.38 69.6569 17.88 69.1236 17.24C68.6036 16.6 68.3436 15.86 68.3436 15.02C68.3436 14.2867 68.5436 13.64 68.9436 13.08C69.3436 12.52 69.8969 12.0867 70.6036 11.78C70.0569 11.5 69.6369 11.1133 69.3436 10.62C69.0636 10.1133 68.9236 9.56 68.9236 8.96C68.9236 8.18667 69.1636 7.48 69.6436 6.84C70.1369 6.2 70.8836 5.68667 71.8836 5.3C72.8836 4.91333 74.1169 4.72 75.5836 4.72C76.5036 4.72 77.4103 4.80667 78.3036 4.98C79.1969 5.15333 79.9836 5.38667 80.6636 5.68L79.5836 8.64C78.3436 8.09333 77.0636 7.82 75.7436 7.82C74.7969 7.82 74.0903 7.94667 73.6236 8.2C73.1569 8.44 72.9236 8.78 72.9236 9.22C72.9236 10.02 73.5036 10.42 74.6636 10.42H78.6236V13.44H74.4036C73.7236 13.44 73.2103 13.5533 72.8636 13.78C72.5169 13.9933 72.3436 14.3133 72.3436 14.74C72.3436 15.1933 72.5969 15.5467 73.1036 15.8C73.6103 16.0533 74.3969 16.18 75.4636 16.18C76.2236 16.18 77.0036 16.08 77.8036 15.88C78.6169 15.6667 79.3236 15.38 79.9236 15.02L81.1236 17.94ZM95.7291 4.72C97.0491 4.72 98.2091 4.98667 99.2091 5.52C100.222 6.04 101.002 6.80667 101.549 7.82C102.109 8.82 102.389 10.0267 102.389 11.44V19H98.4291V15.9H92.9691V19H89.0691V11.44C89.0691 10.0267 89.3424 8.82 89.8891 7.82C90.4491 6.80667 91.2291 6.04 92.2291 5.52C93.2424 4.98667 94.4091 4.72 95.7291 4.72ZM98.4291 12.84V11.1C98.4291 10.0733 98.1824 9.3 97.6891 8.78C97.1957 8.26 96.5357 8 95.7091 8C94.8691 8 94.2024 8.26 93.7091 8.78C93.2157 9.3 92.9691 10.0733 92.9691 11.1V12.84H98.4291ZM120.028 4.72C121.695 4.72 122.988 5.25333 123.908 6.32C124.828 7.37333 125.288 8.88 125.288 10.84V19H121.328V10.96C121.328 9.97333 121.101 9.23333 120.648 8.74C120.208 8.24667 119.588 8 118.788 8C117.961 8 117.295 8.26667 116.788 8.8C116.281 9.32 116.028 10.1067 116.028 11.16V19H112.068V5H115.908V6.6C116.855 5.34667 118.228 4.72 120.028 4.72Z" fill="#FF0F77"/>
<path d="M6.98894 40.08C5.89027 40.08 4.89827 39.8347 4.01294 39.344C3.13827 38.8533 2.44494 38.176 1.93294 37.312C1.4316 36.448 1.18094 35.4773 1.18094 34.4C1.18094 33.3227 1.4316 32.352 1.93294 31.488C2.44494 30.624 3.13827 29.9467 4.01294 29.456C4.89827 28.9653 5.89027 28.72 6.98894 28.72C7.7996 28.72 8.54627 28.8533 9.22894 29.12C9.9116 29.376 10.4929 29.76 10.9729 30.272L10.4609 30.8C9.56494 29.9147 8.41827 29.472 7.02094 29.472C6.08227 29.472 5.22894 29.6853 4.46094 30.112C3.69294 30.5387 3.09027 31.1307 2.65294 31.888C2.2156 32.6347 1.99694 33.472 1.99694 34.4C1.99694 35.328 2.2156 36.1707 2.65294 36.928C3.09027 37.6747 3.69294 38.2613 4.46094 38.688C5.22894 39.1147 6.08227 39.328 7.02094 39.328C8.4076 39.328 9.55427 38.88 10.4609 37.984L10.9729 38.512C10.4929 39.024 9.90627 39.4133 9.21294 39.68C8.53027 39.9467 7.78894 40.08 6.98894 40.08ZM21.2637 40.08C20.165 40.08 19.173 39.8347 18.2877 39.344C17.4024 38.8427 16.7037 38.16 16.1917 37.296C15.6904 36.432 15.4397 35.4667 15.4397 34.4C15.4397 33.3333 15.6904 32.368 16.1917 31.504C16.7037 30.64 17.4024 29.9627 18.2877 29.472C19.173 28.9707 20.165 28.72 21.2637 28.72C22.3624 28.72 23.3544 28.9653 24.2397 29.456C25.125 29.9467 25.8184 30.624 26.3197 31.488C26.8317 32.352 27.0877 33.3227 27.0877 34.4C27.0877 35.4773 26.8317 36.448 26.3197 37.312C25.8184 38.176 25.125 38.8533 24.2397 39.344C23.3544 39.8347 22.3624 40.08 21.2637 40.08ZM21.2637 39.328C22.2024 39.328 23.0504 39.1147 23.8077 38.688C24.565 38.2613 25.1624 37.6747 25.5997 36.928C26.037 36.1707 26.2557 35.328 26.2557 34.4C26.2557 33.472 26.037 32.6347 25.5997 31.888C25.1624 31.1307 24.565 30.5387 23.8077 30.112C23.0504 29.6853 22.2024 29.472 21.2637 29.472C20.325 29.472 19.4717 29.6853 18.7037 30.112C17.9464 30.5387 17.349 31.1307 16.9117 31.888C16.4744 32.6347 16.2557 33.472 16.2557 34.4C16.2557 35.328 16.4744 36.1707 16.9117 36.928C17.349 37.6747 17.9464 38.2613 18.7037 38.688C19.4717 39.1147 20.325 39.328 21.2637 39.328ZM35.9019 40.08C35.0806 40.08 34.2966 39.9413 33.5499 39.664C32.8139 39.376 32.2379 39.008 31.8219 38.56L32.1899 37.952C32.5846 38.368 33.1126 38.7093 33.7739 38.976C34.4459 39.232 35.1499 39.36 35.8859 39.36C36.9526 39.36 37.7579 39.1573 38.3019 38.752C38.8459 38.3467 39.1179 37.8187 39.1179 37.168C39.1179 36.6667 38.9739 36.2667 38.6859 35.968C38.3979 35.6693 38.0406 35.44 37.6139 35.28C37.1873 35.12 36.6113 34.9547 35.8859 34.784C35.0646 34.5813 34.4033 34.384 33.9019 34.192C33.4113 34 32.9899 33.7067 32.6379 33.312C32.2966 32.9067 32.1259 32.368 32.1259 31.696C32.1259 31.152 32.2699 30.656 32.5579 30.208C32.8459 29.7493 33.2833 29.3867 33.8699 29.12C34.4673 28.8533 35.2086 28.72 36.0939 28.72C36.7126 28.72 37.3206 28.8107 37.9179 28.992C38.5153 29.1733 39.0326 29.4187 39.4699 29.728L39.1659 30.384C38.7179 30.0747 38.2219 29.84 37.6779 29.68C37.1446 29.52 36.6166 29.44 36.0939 29.44C35.0593 29.44 34.2753 29.648 33.7419 30.064C33.2086 30.48 32.9419 31.0187 32.9419 31.68C32.9419 32.1813 33.0859 32.5813 33.3739 32.88C33.6619 33.1787 34.0193 33.408 34.4459 33.568C34.8726 33.728 35.4539 33.8987 36.1899 34.08C37.0113 34.2827 37.6673 34.48 38.1579 34.672C38.6486 34.864 39.0646 35.1573 39.4059 35.552C39.7579 35.936 39.9339 36.4587 39.9339 37.12C39.9339 37.664 39.7846 38.16 39.4859 38.608C39.1979 39.056 38.7499 39.4133 38.1419 39.68C37.5339 39.9467 36.7873 40.08 35.9019 40.08ZM57.5239 28.72C58.7826 28.72 59.7639 29.0827 60.4679 29.808C61.1826 30.5333 61.5399 31.5893 61.5399 32.976V40H60.7239V33.008C60.7239 31.8347 60.4306 30.9547 59.8439 30.368C59.2679 29.7707 58.4573 29.472 57.4119 29.472C56.3453 29.472 55.5133 29.7867 54.9159 30.416C54.3293 31.0347 54.0359 31.9893 54.0359 33.28V40H53.2199V33.008C53.2199 31.8347 52.9319 30.9547 52.3559 30.368C51.7906 29.7707 50.9906 29.472 49.9559 29.472C48.8786 29.472 48.0413 29.7867 47.4439 30.416C46.8573 31.0347 46.5639 31.9893 46.5639 33.28V40H45.7479V28.8H46.5479V30.848C46.8466 30.144 47.2999 29.616 47.9079 29.264C48.5266 28.9013 49.2626 28.72 50.1159 28.72C51.0439 28.72 51.8226 28.9227 52.4519 29.328C53.0919 29.7333 53.5399 30.32 53.7959 31.088C54.0839 30.2987 54.5479 29.7067 55.1879 29.312C55.8386 28.9173 56.6173 28.72 57.5239 28.72ZM76.0937 38.64C75.6457 39.0987 75.043 39.456 74.2857 39.712C73.5284 39.9573 72.691 40.08 71.7737 40.08C70.8244 40.08 70.019 39.952 69.3577 39.696C68.707 39.4293 68.211 39.0667 67.8697 38.608C67.539 38.1387 67.3737 37.6053 67.3737 37.008C67.3737 36.304 67.587 35.7173 68.0137 35.248C68.4404 34.7787 69.0164 34.4587 69.7417 34.288C69.1444 34.1067 68.6804 33.792 68.3497 33.344C68.019 32.896 67.8537 32.3573 67.8537 31.728C67.8537 31.1627 68.0084 30.656 68.3177 30.208C68.6377 29.7493 69.107 29.3867 69.7257 29.12C70.355 28.8533 71.1177 28.72 72.0137 28.72C72.6857 28.72 73.3364 28.8 73.9657 28.96C74.595 29.12 75.1337 29.3493 75.5817 29.648L75.3097 30.304C74.3284 29.728 73.2404 29.44 72.0457 29.44C70.9577 29.44 70.1257 29.6587 69.5497 30.096C68.9737 30.5227 68.6857 31.0827 68.6857 31.776C68.6857 32.4693 68.9257 33.008 69.4057 33.392C69.8964 33.7653 70.5737 33.952 71.4377 33.952H74.1577V34.688H71.4057C70.4244 34.688 69.6457 34.88 69.0697 35.264C68.4937 35.648 68.2057 36.2133 68.2057 36.96C68.2057 37.696 68.5097 38.2827 69.1177 38.72C69.7257 39.1467 70.6217 39.36 71.8057 39.36C72.627 39.36 73.379 39.2427 74.0617 39.008C74.755 38.7733 75.315 38.448 75.7417 38.032L76.0937 38.64ZM88.2217 30.576C87.1017 29.9147 85.8377 29.5467 84.4297 29.472V40H83.5977V29.472C82.243 29.5253 80.979 29.8933 79.8057 30.576L79.4857 29.92C80.851 29.12 82.355 28.72 83.9977 28.72C85.6617 28.72 87.1763 29.12 88.5417 29.92L88.2217 30.576ZM95.4914 29.536V39.264H97.8434V40H92.3234V39.264H94.6754V29.536H92.3234V28.8H97.8434V29.536H95.4914ZM108.206 40.08C107.108 40.08 106.116 39.8347 105.23 39.344C104.356 38.8533 103.662 38.176 103.15 37.312C102.649 36.448 102.398 35.4773 102.398 34.4C102.398 33.3227 102.649 32.352 103.15 31.488C103.662 30.624 104.356 29.9467 105.23 29.456C106.116 28.9653 107.108 28.72 108.206 28.72C109.017 28.72 109.764 28.8533 110.446 29.12C111.129 29.376 111.71 29.76 112.19 30.272L111.678 30.8C110.782 29.9147 109.636 29.472 108.238 29.472C107.3 29.472 106.446 29.6853 105.678 30.112C104.91 30.5387 104.308 31.1307 103.87 31.888C103.433 32.6347 103.214 33.472 103.214 34.4C103.214 35.328 103.433 36.1707 103.87 36.928C104.308 37.6747 104.91 38.2613 105.678 38.688C106.446 39.1147 107.3 39.328 108.238 39.328C109.625 39.328 110.772 38.88 111.678 37.984L112.19 38.512C111.71 39.024 111.124 39.4133 110.43 39.68C109.748 39.9467 109.006 40.08 108.206 40.08ZM120.845 40.08C120.024 40.08 119.24 39.9413 118.493 39.664C117.757 39.376 117.181 39.008 116.765 38.56L117.133 37.952C117.528 38.368 118.056 38.7093 118.717 38.976C119.389 39.232 120.093 39.36 120.829 39.36C121.896 39.36 122.701 39.1573 123.245 38.752C123.789 38.3467 124.061 37.8187 124.061 37.168C124.061 36.6667 123.917 36.2667 123.629 35.968C123.341 35.6693 122.984 35.44 122.557 35.28C122.13 35.12 121.554 34.9547 120.829 34.784C120.008 34.5813 119.346 34.384 118.845 34.192C118.354 34 117.933 33.7067 117.581 33.312C117.24 32.9067 117.069 32.368 117.069 31.696C117.069 31.152 117.213 30.656 117.501 30.208C117.789 29.7493 118.226 29.3867 118.813 29.12C119.41 28.8533 120.152 28.72 121.037 28.72C121.656 28.72 122.264 28.8107 122.861 28.992C123.458 29.1733 123.976 29.4187 124.413 29.728L124.109 30.384C123.661 30.0747 123.165 29.84 122.621 29.68C122.088 29.52 121.56 29.44 121.037 29.44C120.002 29.44 119.218 29.648 118.685 30.064C118.152 30.48 117.885 31.0187 117.885 31.68C117.885 32.1813 118.029 32.5813 118.317 32.88C118.605 33.1787 118.962 33.408 119.389 33.568C119.816 33.728 120.397 33.8987 121.133 34.08C121.954 34.2827 122.61 34.48 123.101 34.672C123.592 34.864 124.008 35.1573 124.349 35.552C124.701 35.936 124.877 36.4587 124.877 37.12C124.877 37.664 124.728 38.16 124.429 38.608C124.141 39.056 123.693 39.4133 123.085 39.68C122.477 39.9467 121.73 40.08 120.845 40.08Z" fill="black"/>
</svg>
